:SAMPLES-PER-SECOND 30
:FULLY-SPECIFIED
:DEGREES
402
root  -2.92521 40.9322 1.09453 -175.746 -87.5038 179.262
RightUpLeg  0.433163 -1.71298 -2.98185
RightLeg  -2.87038 -16.6319 0.967062
RightFoot  0.518379 -0.445399 4.31565
RightToes  -3.11842e-008 1.75238e-005 3.56266e-009
Spine  -3.75353 -3.27295 -6.07137
Spine1  -2.44987 -3.76554 5.61438
HEad  -7.80927 10.2994 -0.454951
LeftShoulder1  4.00919 -7.89104 -29.1578
LeftArm  -6.97886 -5.95362 -41.4219
LeftForeArm  106.512 -71.83 -141.238
LeftHand  0.37455 -1.66363 -6.02341
RightShoulder  3.1678 6.38846 25.9867
RightArm  20.3796 -24.9081 31.6176
RightForeArm  114.457 66.7805 151.017
RightHand  -0.0329383 4.4944 -0.673792
LeftUpLeg  -0.415795 0.617458 1.23877
LeftLeg  -2.27082 17.3691 -1.721
LeftFoot  -0.200656 0.128696 -1.23846
LeftToes  4.7713e-008 1.46693e-008 1.32589e-009
403
root  -2.88703 40.9398 1.09786 -175.534 -87.4549 179.29
RightUpLeg  0.186978 -1.67067 -2.98841
RightLeg  -3.05359 -16.6122 1.02452
RightFoot  0.712996 -0.462347 4.42177
RightToes  -3.11842e-008 1.75238e-005 3.56266e-009
Spine  -2.67757 -3.2523 -6.71252
Spine1  -4.69991 -3.73749 6.44018
HEad  -6.4285 9.70868 -0.356994
LeftShoulder1  3.99852 -8.00745 -28.6937
LeftArm  -11.9194 -15.4728 -42.7432
LeftForeArm  93.1138 -74.2041 -132.572
LeftHand  0.172838 -0.309929 -3.50545
RightShoulder  3.20232 6.50185 25.9644
RightArm  18.6155 -20.0731 32.5222
RightForeArm  113.212 66.4491 151.343
RightHand  -0.0469773 4.58765 -0.836007
LeftUpLeg  -0.562771 0.575793 1.2478
LeftLeg  -2.6524 17.4641 -1.86383
LeftFoot  0.0280448 0.12943 -1.22483
LeftToes  4.7713e-008 1.46693e-008 1.32589e-009
404
root  -2.84687 40.9522 1.09501 -174.505 -87.2305 178.452
RightUpLeg  -0.0463679 -1.75392 -3.09512
RightLeg  -3.20526 -16.269 1.13651
RightFoot  0.887784 -0.480059 4.53487
RightToes  -3.11842e-008 1.75238e-005 3.56266e-009
Spine  -1.34363 -3.00327 -6.91585
Spine1  -7.2067 -3.4112 6.68641
HEad  -5.89553 9.95999 -0.460446
LeftShoulder1  3.80598 -7.85203 -27.4492
LeftArm  -16.2125 -24.5514 -44.0568
LeftForeArm  71.8467 -77.0178 -114.302
LeftHand  0.038875 1.06916 -1.3927
RightShoulder  3.36514 6.93547 26.2063
RightArm  15.9259 -14.6098 33.3998
RightForeArm  110.467 66.2475 151.362
RightHand  -0.0483173 4.21343 -0.85867
LeftUpLeg  -0.471425 0.402595 1.15852
LeftLeg  -3.39699 17.8913 -2.01497
LeftFoot  0.435393 0.140287 -1.36532
LeftToes  4.7713e-008 1.46693e-008 1.32589e-009
405
root  -2.81757 40.9615 1.09099 -172.871 -86.7954 177.218
RightUpLeg  -0.532936 -1.73059 -3.17511
RightLeg  -3.35145 -15.8565 1.15666
RightFoot  1.09986 -0.484193 4.50768
RightToes  -3.11842e-008 1.75238e-005 3.56266e-009
Spine  -0.582904 -2.54689 -7.18906
Spine1  -9.1789 -2.89656 7.11353
HEad  -5.41613 9.78658 -0.974076
LeftShoulder1  3.70691 -7.91568 -26.3442
LeftArm  -20.1499 -32.8755 -44.5578
LeftForeArm  39.5074 -78.0636 -84.3711
LeftHand  0.00906435 3.15891 -0.843139
RightShoulder  3.48909 7.4286 25.8647
RightArm  13.2133 -9.2537 34.6173
RightForeArm  106.814 66.4817 150.735
RightHand  -0.0688241 4.26015 -1.10426
LeftUpLeg  -0.595599 0.158362 1.01008
LeftLeg  -4.10266 18.6079 -2.15717
LeftFoot  0.803492 0.146101 -1.42411
LeftToes  4.7713e-008 1.46693e-008 1.32589e-009
406
root  -2.80252 40.9713 1.08419 -173.235 -86.5105 177.97
RightUpLeg  -0.914011 -1.57761 -3.11726
RightLeg  -3.60166 -15.66 1.17113
RightFoot  1.35928 -0.497025 4.54649
RightToes  -3.11842e-008 1.75238e-005 3.56266e-009
Spine  0.201764 -2.10078 -7.18778
Spine1  -10.9859 -2.38353 7.20169
HEad  -5.51595 8.80574 -1.34473
LeftShoulder1  3.44486 -7.65474 -24.7008
LeftArm  -23.1866 -39.8907 -44.655
LeftForeArm  9.3454 -75.7481 -57.0585
LeftHand  -0.0371432 5.18292 4.10488
RightShoulder  3.42192 7.43116 25.2166
RightArm  10.9386 -4.56777 36.4755
RightForeArm  103.285 67.0234 149.672
RightHand  -0.0604567 3.90127 -1.01602
LeftUpLeg  -0.824889 0.0617186 1.02326
LeftLeg  -4.51923 19.0097 -2.26347
LeftFoot  1.04802 0.148583 -1.42762
LeftToes  4.7713e-008 1.46693e-008 1.32589e-009
407
root  -2.77324 40.9779 1.06954 -174.398 -86.0115 179.558
RightUpLeg  -1.41016 -1.35269 -2.99031
RightLeg  -3.80256 -15.3714 1.16645
RightFoot  1.65248 -0.50507 4.53079
RightToes  -3.11842e-008 1.75238e-005 3.56266e-009
Spine  0.853618 -1.62136 -7.29227
Spine1  -12.5036 -1.8585 7.40537
HEad  -5.90565 9.01971 -1.2985
LeftShoulder1  3.30403 -7.64001 -23.4032
LeftArm  -27.1353 -45.2403 -43.956
LeftForeArm  -9.71265 -70.4327 -36.7965
LeftHand  -0.0248932 5.36243 4.48028
RightShoulder  3.43035 7.63391 24.6958
RightArm  9.38984 -0.792739 38.1103
RightForeArm  101.459 67.7724 148.399
RightHand  -0.12543 3.997 -1.82411
LeftUpLeg  -1.17514 0.0850294 1.14888
LeftLeg  -4.7588 19.4924 -2.39264
LeftFoot  1.21591 0.158571 -1.50748
LeftToes  4.7713e-008 1.46693e-008 1.32589e-009
408
root  -2.7734 40.9873 1.05221 -175.01 -85.6206 -179.567
RightUpLeg  -1.65675 -1.24344 -2.91983
RightLeg  -4.0077 -15.0724 1.2128
RightFoot  1.87299 -0.520858 4.60403
RightToes  -3.11842e-008 1.75238e-005 3.56266e-009
Spine  1.77674 -1.28399 -7.27343
Spine1  -14.1228 -1.47426 7.43784
HEad  -6.40303 9.10207 -1.13118
LeftShoulder1  3.02361 -7.27105 -21.7257
LeftArm  -31.0574 -49.1928 -43.5253
LeftForeArm  -19.9543 -63.948 -25.99
LeftHand  0.00572044 5.96496 6.43431
RightShoulder  3.47225 7.86563 24.4215
RightArm  8.50288 2.02556 39.3732
RightForeArm  99.8404 68.1657 147.626
RightHand  -0.173534 3.74789 -2.45883
LeftUpLeg  -1.18175 0.0386179 1.21034
LeftLeg  -5.28078 19.927 -2.53555
LeftFoot  1.48473 0.169236 -1.5911
LeftToes  4.7713e-008 1.46693e-008 1.32589e-009
409
root  -2.78375 40.9947 1.03916 -175.062 -85.3983 -179.25
RightUpLeg  -1.83515 -1.25468 -2.9271
RightLeg  -4.27244 -14.8354 1.35231
RightFoot  2.03866 -0.530401 4.63734
RightToes  -3.11842e-008 1.75238e-005 3.56266e-009
Spine  2.19131 -1.26415 -7.27564
Spine1  -15.0452 -1.42053 7.55245
HEad  -7.36555 9.03493 -1.50786
LeftShoulder1  2.83738 -6.87301 -20.9644
LeftArm  -35.04 -51.6719 -42.4537
LeftForeArm  -25.033 -57.325 -19.7123
LeftHand  0.0611802 6.5487 8.53559
RightShoulder  3.51428 8.0429 24.3099
RightArm  8.17308 3.75126 40.6041
RightForeArm  99.1159 68.76 146.564
RightHand  -0.190983 4.06086 -2.61772
LeftUpLeg  -1.27536 -0.042153 1.22695
LeftLeg  -5.62816 20.2281 -2.61232
LeftFoot  1.67378 0.174982 -1.63109
LeftToes  4.7713e-008 1.46693e-008 1.32589e-009
410
root  -2.80702 40.9954 1.02461 -175.704 -85.2111 -178.368
RightUpLeg  -1.97943 -1.11679 -2.80786
RightLeg  -4.49665 -14.8554 1.38178
RightFoot  2.17179 -0.542193 4.69844
RightToes  -3.11842e-008 1.75238e-005 3.56266e-009
Spine  1.60123 -1.26109 -7.5261
Spine1  -14.5835 -1.43208 8.0291
HEad  -8.53403 8.96405 -1.72875
LeftShoulder1  2.82728 -6.77312 -21.1406
LeftArm  -39.3596 -53.1887 -40.8127
LeftForeArm  -27.7012 -50.7943 -15.5848
LeftHand  0.159188 7.69746 9.44694
RightShoulder  3.62742 8.29347 24.6357
RightArm  7.97449 4.66025 41.0429
RightForeArm  98.5506 69.0056 146.08
RightHand  -0.162937 4.15954 -2.25721
LeftUpLeg  -1.32421 -0.0918628 1.28343
LeftLeg  -5.97431 20.4956 -2.67428
LeftFoot  1.825 0.174189 -1.58952
LeftToes  4.7713e-008 1.46693e-008 1.32589e-009
411
root  -2.8427 40.9957 1.00744 -176.627 -85.0541 -177.432
RightUpLeg  -1.83452 -1.04411 -2.69627
RightLeg  -4.73653 -14.808 1.45328
RightFoot  2.17935 -0.540869 4.68516
RightToes  -3.11842e-008 1.75238e-005 3.56266e-009
Spine  1.03572 -1.28463 -7.81535
Spine1  -13.8497 -1.49356 8.49611
HEad  -9.24223 9.06233 -1.93983
LeftShoulder1  2.88652 -6.75976 -21.789
LeftArm  -43.3859 -53.5702 -39.4229
LeftForeArm  -28.2976 -44.7525 -12.7202
LeftHand  0.248263 8.228 11.2286
RightShoulder  3.77109 8.48184 25.3889
RightArm  8.40948 4.65765 40.9259
RightForeArm  98.5989 68.9354 146.209
RightHand  -0.226085 3.85685 -3.09888
LeftUpLeg  -1.17024 -0.0958904 1.34595
LeftLeg  -6.15621 20.6721 -2.65943
LeftFoot  1.89484 0.174449 -1.57415
LeftToes  4.7713e-008 1.46693e-008 1.32589e-009
412
root  -2.87061 40.9929 0.990081 -177.353 -84.9987 -176.854
RightUpLeg  -1.59127 -1.01201 -2.6049
RightLeg  -4.82575 -14.8226 1.47952
RightFoot  2.15734 -0.513768 4.46281
RightToes  -3.11842e-008 1.75238e-005 3.56266e-009
Spine  0.488421 -1.39255 -8.07598
Spine1  -12.8996 -1.65571 8.88224
HEad  -9.66966 9.0646 -2.30121
LeftShoulder1  3.07316 -6.99703 -23.0026
LeftArm  -47.4084 -52.5763 -38.4183
LeftForeArm  -28.3499 -39.7307 -10.8102
LeftHand  0.367935 9.05328 12.513
RightShoulder  3.8621 8.47073 26.2096
RightArm  8.88093 3.7169 40.8745
RightForeArm  98.0849 69.0733 145.917
RightHand  -0.184433 3.87791 -2.57403
LeftUpLeg  -1.01165 -0.092135 1.37421
LeftLeg  -6.0362 20.7369 -2.525
LeftFoot  1.84789 0.174598 -1.5593
LeftToes  4.7713e-008 1.46693e-008 1.32589e-009
413
root  -2.8966 40.9896 0.972453 -177.4 -84.9751 -177.08
RightUpLeg  -1.36061 -1.03791 -2.57929
RightLeg  -4.59301 -14.784 1.38502
RightFoot  1.9788 -0.504402 4.43244
RightToes  -3.11842e-008 1.75238e-005 3.56266e-009
Spine  -0.153347 -1.60814 -8.23476
Spine1  -11.7245 -1.92521 9.01319
HEad  -9.73469 9.03675 -2.15249
LeftShoulder1  3.21052 -7.15883 -23.8965
LeftArm  -50.6381 -50.1114 -38.4993
LeftForeArm  -29.2808 -35.7919 -9.5609
LeftHand  0.496196 10.0916 12.9184
RightShoulder  3.97711 8.54817 26.9898
RightArm  9.8429 1.94155 40.5029
RightForeArm  98.0075 69.0936 145.873
RightHand  -0.189428 3.75197 -2.66381
LeftUpLeg  -0.765428 -0.0412233 1.36642
LeftLeg  -5.8292 20.7173 -2.44129
LeftFoot  1.74152 0.173672 -1.53
LeftToes  4.7713e-008 1.46693e-008 1.32589e-009
414
root  -2.93634 40.9875 0.951053 -178.492 -85.1 -176.41
RightUpLeg  -0.826232 -1.1118 -2.51675
RightLeg  -4.55752 -14.8002 1.42428
RightFoot  1.84899 -0.490769 4.35144
RightToes  -3.11842e-008 1.75238e-005 3.56266e-009
Spine  -0.632087 -1.81173 -8.48029
Spine1  -10.4995 -2.21771 9.34802
HEad  -9.6504 9.64364 -1.90105
LeftShoulder1  3.27082 -7.11802 -24.6098
LeftArm  -50.7504 -46.7548 -38.1941
LeftForeArm  -32.3853 -32.6356 -8.75638
LeftHand  0.647332 10.8697 14.2911
RightShoulder  3.92481 8.28143 27.3048
RightArm  11.0809 -0.183814 40.301
RightForeArm  98.2572 69.2845 145.548
RightHand  -0.201712 3.95638 -2.77197
LeftUpLeg  -0.365067 0.0716274 1.43727
LeftLeg  -5.57061 20.488 -2.29972
LeftFoot  1.62262 0.176252 -1.5575
LeftToes  4.7713e-008 1.46693e-008 1.32589e-009
415
root  -2.9951 40.9857 0.93438 -178.899 -85.1413 -176.454
RightUpLeg  -0.324105 -1.14708 -2.48937
RightLeg  -4.34905 -14.7819 1.32457
RightFoot  1.63421 -0.487346 4.38036
RightToes  -3.11842e-008 1.75238e-005 3.56266e-009
Spine  -1.1471 -1.9682 -8.92329
Spine1  -9.34207 -2.47156 9.902
HEad  -9.51236 9.84833 -2.44886
LeftShoulder1  3.37431 -7.22645 -25.2961
LeftArm  -49.0273 -43.0528 -37.4179
LeftForeArm  -35.3727 -29.6021 -8.03158
LeftHand  0.799904 11.5245 15.5581
RightShoulder  3.81317 7.91753 27.3931
RightArm  12.7029 -2.11537 39.9536
RightForeArm  96.9625 69.373 145.264
RightHand  -0.222232 3.80719 -3.06537
LeftUpLeg  0.208423 0.145044 1.43267
LeftLeg  -5.53953 20.3763 -2.25167
LeftFoot  1.50098 0.178106 -1.57603
LeftToes  4.7713e-008 1.46693e-008 1.32589e-009
